<svg id="Layer_1" version="1.1" viewBox="0 0 128 128" xml:space="preserve" xmlns="http://www.w3.org/2000/svg" enable-background="new 0 0 128 128"><circle cx="64" cy="64" r="60" fill="#0a2351" class="fill-382673"></circle><circle cx="64" cy="64" r="50" fill="#377dff" class="fill-473080"></circle><path d="M84 110H44V92c0-1.1.9-2 2-2h36c1.1 0 2 .9 2 2v18z" fill="#0cafe8" class="fill-0cafe8"></path><path d="M87 113H41l1-3h44z" fill="#0b90d3" class="fill-0b90d3"></path><path d="M72 106H56c-2.2 0-4-1.8-4-4v-3c0-2.2 1.8-4 4-4h16c2.2 0 4 1.8 4 4v3c0 2.2-1.8 4-4 4z" fill="#ffffff" class="fill-ffffff"></path><path d="M58.8 68.5h10.5V85H58.8z" fill="#f9a74e" class="fill-f9a74e"></path><path d="M66.2 68.5h3V85h-3z" opacity=".2" fill="#0a2351" class="fill-382673"></path><path d="M73 84H55c-3.3 0-6 2.7-6 6h30c0-3.3-2.7-6-6-6z" fill="#ffde39" class="fill-ffde39"></path><path d="M73 84h-5c3.3 0 6 2.7 6 6h5c0-3.3-2.7-6-6-6z" fill="#fec632" class="fill-fec632"></path><path d="M69.1 77H58.9c-2.7 0-4.9-2.2-4.9-4.9V71h20v1.1c0 2.7-2.2 4.9-4.9 4.9z" fill="#ffde39" class="fill-ffde39"></path><path d="M70 71v1.1c0 2.7-1.2 4.9-3.9 4.9h3c2.7 0 4.9-2.2 4.9-4.9V71h-4z" fill="#fec632" class="fill-fec632"></path><path d="M81 90H47c0-1.1.9-2 2-2h30c1.1 0 2 .9 2 2z" fill="#f9a74e" class="fill-f9a74e"></path><path d="M79 88h-5c1.1 0 2 .9 2 2h5c0-1.1-.9-2-2-2z" opacity=".2" fill="#0a2351" class="fill-382673"></path><path d="M76 69H52v3c0 1.1.9 2 2 2h20c1.1 0 2-.9 2-2v-3z" fill="#f9a74e" class="fill-f9a74e"></path><path d="M76 69H52v3c0 1.1.9 2 2 2h20c1.1 0 2-.9 2-2v-3z" fill="#f9a74e" class="fill-f9a74e"></path><path d="m71 69-2 3c1 0 1.1 2 0 2h5c1.1 0 2-.9 2-2v-3h-5z" opacity=".2" fill="#0a2351" class="fill-382673"></path><path d="M78 37h19v1c0 10.5-8.5 19-19 19h0" fill="none" stroke="#f9a74e" stroke-width="4" stroke-linecap="round" stroke-linejoin="round" stroke-miterlimit="10" class="stroke-f9a74e"></path><path d="M50 37H31v1c0 10.5 8.5 19 19 19h0" fill="none" stroke="#fec632" stroke-width="4" stroke-linecap="round" stroke-linejoin="round" stroke-miterlimit="10" class="stroke-fec632"></path><path d="M72.5 72h-17C49.1 72 44 66.9 44 60.5V29h40v31.5C84 66.9 78.9 72 72.5 72z" fill="#ffde39" class="fill-ffde39"></path><path d="M50 32v20" opacity=".3" fill="none" stroke="#ffffff" stroke-width="2" stroke-linecap="round" stroke-linejoin="round" stroke-miterlimit="10" class="stroke-ffffff"></path><path d="M79 29v31.5C79 66.9 73.9 72 67.5 72h5C78.9 72 84 66.9 84 60.5V29h-5z" fill="#fec632" class="fill-fec632"></path><path d="M87 29H41l3 3h40z" fill="#f9a74e" class="fill-f9a74e"></path><path d="m81 29-2 3h5l3-3z" opacity=".2" fill="#0a2351" class="fill-382673"></path><path d="M88 25H40c-1.1 0-2 .9-2 2s.9 2 2 2h48c1.1 0 2-.9 2-2s-.9-2-2-2z" fill="#ffde39" class="fill-ffde39"></path><path d="M88 25h-6c1.1 0 2 .9 2 2s-.9 2-2 2h6c1.1 0 2-.9 2-2s-.9-2-2-2z" fill="#fec632" class="fill-fec632"></path><path d="M50 56.4v2.3" opacity=".3" fill="none" stroke="#ffffff" stroke-width="2" stroke-linecap="round" stroke-linejoin="round" stroke-miterlimit="10" class="stroke-ffffff"></path><path d="m48.9 21.4.6-1.5c.2-.4.8-.4.9 0l.6 1.5c.5 1.2 1.4 2.1 2.6 2.6l1.5.6c.4.2.4.8 0 .9l-1.5.6c-1.2.5-2.1 1.4-2.6 2.6l-.6 1.5c-.2.4-.8.4-.9 0l-.6-1.5c-.5-1.2-1.4-2.1-2.6-2.6l-1.5-.6c-.4-.2-.4-.8 0-.9l1.5-.6c1.2-.5 2.2-1.5 2.6-2.6z" fill="#ffffff" class="fill-ffffff"></path><path d="m64 54.5 4.3 2.3c.6.3 1.4-.2 1.3-.9l-.9-4.9 3.5-3.4c.5-.5.2-1.4-.5-1.5l-4.8-.7-2.2-4.4c-.3-.6-1.2-.6-1.5 0L61 45.4l-4.8.7c-.7.1-1 1-.5 1.5l3.5 3.4-.8 4.8c-.1.7.6 1.2 1.3.9l4.3-2.2z" fill="#fec632" class="fill-fec632"></path></svg>