<?xml version="1.0" ?><svg style="enable-background:new 0 0 64 64;" version="1.1" viewBox="0 0 64 64" xml:space="preserve" xmlns="http://www.w3.org/2000/svg" xmlns:xlink="http://www.w3.org/1999/xlink"><style type="text/css">
	.st0{fill:#0072FF;}
</style><g id="GUIDES_64"/><g id="Layer_3"/><g id="Layer_2"><path class="st0" d="M37.2,30.9c-3.9,0-6.9,3.2-6.9,6.9c0,3.9,3,6.9,7.3,6.9c3.5,0,6.5-2.9,6.5-6.8C44.1,33.9,41.1,30.9,37.2,30.9z   "/><path class="st0" d="M48.7,4H15.3C9,4,4,9,4,15.3v33.5C4,55,9,60,15.3,60h33.5C55,60,60,55,60,48.7V15.3C60,9,55,4,48.7,4z M52,51   c0,0.6-0.4,1-1,1h-6c-0.6,0-1-0.4-1-1c0-0.8-0.9-1.3-1.6-0.8c-2,1.4-4.1,2-6.7,2c-3.4,0-6.3-1.1-8.8-3.3c-3.2-2.9-4.9-6.6-4.9-11   c0-4,1.6-7.6,4.5-10.4c2.6-2.6,5.8-3.9,9.3-3.9c2.5,0,4.6,0.6,6.3,2c0.6,0.5,1.6,0,1.6-0.8v-9c0-0.5,0.3-0.9,0.8-1l6.3-1.3   c0.6-0.1,1.2,0.3,1.2,1V51z"/></g></svg>